<svg width="28" height="28" viewBox="0 0 28 28" fill="none" xmlns="http://www.w3.org/2000/svg">
<rect width="28" height="28" rx="7" fill="#FFC750"/>
<path d="M14 22C16.1217 22 18.1566 21.1571 19.6569 19.6569C21.1571 18.1566 22 16.1217 22 14C22 11.8783 21.1571 9.84344 19.6569 8.34315C18.1566 6.84285 16.1217 6 14 6C11.8783 6 9.84344 6.84285 8.34315 8.34315C6.84285 9.84344 6 11.8783 6 14C6 16.1217 6.84285 18.1566 8.34315 19.6569C9.84344 21.1571 11.8783 22 14 22ZM14 10C14.4156 10 14.75 10.3344 14.75 10.75V14.25C14.75 14.6656 14.4156 15 14 15C13.5844 15 13.25 14.6656 13.25 14.25V10.75C13.25 10.3344 13.5844 10 14 10ZM13 17C13 16.7348 13.1054 16.4804 13.2929 16.2929C13.4804 16.1054 13.7348 16 14 16C14.2652 16 14.5196 16.1054 14.7071 16.2929C14.8946 16.4804 15 16.7348 15 17C15 17.2652 14.8946 17.5196 14.7071 17.7071C14.5196 17.8946 14.2652 18 14 18C13.7348 18 13.4804 17.8946 13.2929 17.7071C13.1054 17.5196 13 17.2652 13 17Z" fill="#F8F8FF"/>
</svg>
