<svg width="28" height="28" viewBox="0 0 28 28" fill="none" xmlns="http://www.w3.org/2000/svg">
<rect width="28" height="28" rx="7" fill="#66BB6A"/>
<path d="M14 22C16.1217 22 18.1566 21.1571 19.6569 19.6569C21.1571 18.1566 22 16.1217 22 14C22 11.8783 21.1571 9.84344 19.6569 8.34315C18.1566 6.84285 16.1217 6 14 6C11.8783 6 9.84344 6.84285 8.34315 8.34315C6.84285 9.84344 6 11.8783 6 14C6 16.1217 6.84285 18.1566 8.34315 19.6569C9.84344 21.1571 11.8783 22 14 22ZM13.25 16.75V14.75H11.25C10.8344 14.75 10.5 14.4156 10.5 14C10.5 13.5844 10.8344 13.25 11.25 13.25H13.25V11.25C13.25 10.8344 13.5844 10.5 14 10.5C14.4156 10.5 14.75 10.8344 14.75 11.25V13.25H16.75C17.1656 13.25 17.5 13.5844 17.5 14C17.5 14.4156 17.1656 14.75 16.75 14.75H14.75V16.75C14.75 17.1656 14.4156 17.5 14 17.5C13.5844 17.5 13.25 17.1656 13.25 16.75Z" fill="#F8F8FF"/>
</svg>
