<svg width="28" height="28" viewBox="0 0 28 28" fill="none" xmlns="http://www.w3.org/2000/svg">
<rect width="28" height="28" rx="7" fill="#EF5350"/>
<path d="M14 22C16.1217 22 18.1566 21.1571 19.6569 19.6569C21.1571 18.1566 22 16.1217 22 14C22 11.8783 21.1571 9.84344 19.6569 8.34315C18.1566 6.84285 16.1217 6 14 6C11.8783 6 9.84344 6.84285 8.34315 8.34315C6.84285 9.84344 6 11.8783 6 14C6 16.1217 6.84285 18.1566 8.34315 19.6569C9.84344 21.1571 11.8783 22 14 22ZM11.4688 11.4688C11.7625 11.175 12.2375 11.175 12.5281 11.4688L13.9969 12.9375L15.4656 11.4688C15.7594 11.175 16.2344 11.175 16.525 11.4688C16.8156 11.7625 16.8187 12.2375 16.525 12.5281L15.0562 13.9969L16.525 15.4656C16.8187 15.7594 16.8187 16.2344 16.525 16.525C16.2312 16.8156 15.7562 16.8187 15.4656 16.525L13.9969 15.0562L12.5281 16.525C12.2344 16.8187 11.7594 16.8187 11.4688 16.525C11.1781 16.2312 11.175 15.7562 11.4688 15.4656L12.9375 13.9969L11.4688 12.5281C11.175 12.2344 11.175 11.7594 11.4688 11.4688Z" fill="#F8F8FF"/>
</svg>
