<svg width="30" height="28" viewBox="0 0 30 28" fill="none" xmlns="http://www.w3.org/2000/svg">
<path d="M14.875 13.125V0.929688C14.875 0.4375 15.2578 0 15.75 0C22.4766 0 28 5.52344 28 12.25C28 12.7422 27.5625 13.125 27.0703 13.125H14.875ZM0 14.875C0 8.25781 4.92188 2.78906 11.3203 1.91406C11.8125 1.80469 12.25 2.24219 12.25 2.73438V15.75L20.7812 24.3359C21.1641 24.7188 21.1094 25.3203 20.7266 25.5938C18.5391 27.125 15.9141 28 13.125 28C5.85156 28 0 22.1484 0 14.875ZM28.7656 15.75C29.2578 15.75 29.6953 16.1875 29.5859 16.6797C29.2031 19.7422 27.7266 22.4766 25.5391 24.5C25.2109 24.7734 24.7188 24.7734 24.3906 24.4453L15.75 15.75H28.7656Z" fill="#1F4842"/>
</svg>
