<svg width="28" height="28" viewBox="0 0 28 28" fill="none" xmlns="http://www.w3.org/2000/svg">
<path d="M28 4.375C28 5.41406 27.1797 6.28906 25.8672 7C24.2812 7.92969 21.9297 8.53125 19.1953 8.69531C18.9766 8.64062 18.7578 8.53125 18.5938 8.42188C16.4062 7.54688 13.5625 7 10.5 7C10.0078 7 9.57031 7.05469 9.13281 7.05469L9.07812 7C7.76562 6.28906 7 5.41406 7 4.375C7 1.96875 11.6484 0 17.5 0C23.2969 0 28 1.96875 28 4.375ZM8.75 8.85938C9.29688 8.80469 9.89844 8.75 10.5 8.75C13.8906 8.75 16.8984 9.46094 18.8125 10.5C20.1797 11.2109 21 12.1406 21 13.125C21 13.3438 20.9453 13.5625 20.8359 13.7812C20.6172 14.4922 19.9062 15.1484 18.9219 15.75H18.8672C16.9531 16.8438 13.8906 17.5 10.5 17.5C7.21875 17.5 4.32031 16.8984 2.35156 15.9141C2.24219 15.8594 2.1875 15.8047 2.07812 15.75C0.765625 15.0391 0 14.1094 0 13.125C0 11.2656 2.89844 9.625 7 9.02344C7.54688 8.91406 8.14844 8.85938 8.75 8.85938ZM21.3828 10.2266C22.9688 10.0078 24.3906 9.625 25.5938 9.13281C26.4688 8.75 27.2891 8.25781 28 7.71094V9.625C28 10.7188 27.0703 11.7031 25.5938 12.4141C24.7734 12.8516 23.7891 13.1797 22.6953 13.4531C22.6953 13.3438 22.75 13.2344 22.75 13.125C22.75 11.9766 22.1484 10.9922 21.3828 10.2266ZM21 18.375C21 19.3594 20.1797 20.2891 18.8672 21C18.7578 21.0547 18.7031 21.1094 18.5938 21.1641C16.625 22.1484 13.7266 22.75 10.5 22.75C7.05469 22.75 3.99219 22.0938 2.07812 21C0.765625 20.2891 0 19.3594 0 18.375V16.4609C0.65625 17.0078 1.47656 17.5 2.35156 17.8828C4.53906 18.7578 7.38281 19.25 10.5 19.25C13.5625 19.25 16.4062 18.7578 18.5938 17.8828C18.9766 17.6641 19.4141 17.5 19.7969 17.2812C20.125 17.0625 20.4531 16.8438 20.7266 16.625C20.8359 16.5703 20.8906 16.5156 21 16.4609V18.375ZM22.75 15.2578C23.7344 14.9844 24.7188 14.7109 25.5938 14.3828C26.4688 14 27.2891 13.5078 28 12.9609V14.875C28 15.4766 27.7266 16.0234 27.1797 16.5703C26.25 17.5 24.7188 18.2109 22.6953 18.7031C22.6953 18.5938 22.75 18.4844 22.75 18.375V15.2578ZM10.5 24.5C13.5625 24.5 16.4062 24.0078 18.5938 23.1328C19.4688 22.75 20.2891 22.2578 21 21.7109V23.625C21 26.0859 16.2969 28 10.5 28C4.64844 28 0 26.0859 0 23.625V21.7109C0.65625 22.2578 1.47656 22.75 2.35156 23.1328C4.53906 24.0078 7.38281 24.5 10.5 24.5Z" fill="#1F4842"/>
</svg>
