<svg width="29" height="25" viewBox="0 0 29 25" fill="none" xmlns="http://www.w3.org/2000/svg">
<path d="M14.1094 22.75V22.8047C12.0312 22.8047 10.1172 22.4219 8.36719 21.8203C7.76562 22.2578 6.67188 22.9141 5.41406 23.4609C4.10156 24.0625 2.51562 24.5547 0.984375 24.5547C0.601562 24.5547 0.273438 24.3359 0.164062 24.0078C0 23.6797 0.109375 23.2969 0.328125 23.0234C0.382812 23.0234 0.382812 22.9688 0.4375 22.9688C0.492188 22.8594 0.601562 22.75 0.710938 22.6406C0.929688 22.3672 1.20312 21.9297 1.53125 21.4375C2.07812 20.5625 2.57031 19.3594 2.67969 17.9922C1.03906 16.1328 0.109375 13.8906 0.109375 11.375C0.109375 5.14062 6.34375 0 14.1094 0C21.8203 0 28.1094 5.14062 28.1094 11.375C28.1094 17.6641 21.8203 22.75 14.1094 22.75ZM15.2031 5.6875V5.74219C15.2031 5.14062 14.7109 4.64844 14.1094 4.64844C13.5078 4.64844 13.0156 5.14062 13.0156 5.74219V6.50781C12.5781 6.61719 12.1406 6.72656 11.7578 6.94531C10.9922 7.4375 10.3359 8.20312 10.3906 9.35156C10.3906 10.4453 11.0469 11.1562 11.7031 11.5938C12.3047 11.9766 13.0703 12.1953 13.6719 12.3594H13.7812C14.4375 12.5781 14.9297 12.7422 15.3125 12.9609C15.5859 13.125 15.5859 13.2344 15.5859 13.3984C15.6406 13.6719 15.5312 13.8359 15.3125 14C15.0391 14.1641 14.6016 14.2734 14.1094 14.2734C13.5078 14.2188 12.9609 14.0547 12.1953 13.7812C12.0859 13.7266 11.9219 13.6719 11.8125 13.6719C11.2109 13.4531 10.6094 13.7812 10.4453 14.3281C10.2266 14.9297 10.5547 15.5312 11.1016 15.75C11.2109 15.75 11.3203 15.8047 11.4297 15.8594C11.8672 16.0234 12.4141 16.1875 12.9609 16.2969V17.1172C12.9609 17.7188 13.4531 18.2109 14.0547 18.2109C14.6562 18.2109 15.1484 17.7188 15.1484 17.1172V16.3516C15.5859 16.2422 16.0234 16.0781 16.4609 15.8594C17.2266 15.3672 17.8281 14.5469 17.7734 13.3984C17.7734 12.3047 17.1719 11.5391 16.4609 11.1016C15.8047 10.7188 15.0391 10.5 14.4375 10.2812H14.3828C13.6719 10.0625 13.1797 9.89844 12.8516 9.73438C12.5781 9.51562 12.5234 9.46094 12.5234 9.35156C12.5234 9.13281 12.6328 8.96875 12.9062 8.85938C13.1797 8.64062 13.6172 8.53125 14.0547 8.58594C14.6016 8.58594 15.1484 8.69531 15.75 8.85938C16.3516 9.02344 16.9531 8.64062 17.1172 8.09375C17.2812 7.49219 16.8984 6.89062 16.3516 6.72656C15.9688 6.61719 15.5859 6.5625 15.2031 6.45312V5.6875Z" fill="white"/>
</svg>
