<svg width="28" height="25" viewBox="0 0 28 25" fill="none" xmlns="http://www.w3.org/2000/svg">
<path d="M14.0547 0C21.7656 0 28 5.14062 28 11.375C28 17.6641 21.7656 22.75 14.0547 22.75C11.9219 22.75 9.95312 22.3125 8.14844 21.6562C6.83594 22.75 4.10156 24.5 0.492188 24.5C0.273438 24.5 0.109375 24.4453 0.0546875 24.2812C0 24.1172 0.0546875 23.8984 0.21875 23.7344C0.21875 23.7344 2.51562 21.2734 3.17188 18.4844C1.25781 16.5156 0.0546875 14.0547 0.0546875 11.375C0.0546875 5.08594 6.28906 0 14.0547 0ZM17.3906 13.7266C17.8281 11.3203 15.5312 10.7188 14.2734 10.3359L14 10.2812C12.7422 9.89844 12.7422 9.67969 12.7969 9.46094C12.8516 9.02344 13.7266 8.91406 14.4375 9.02344C14.7656 9.07812 15.0938 9.1875 15.4219 9.29688C15.9688 9.51562 16.625 9.1875 16.7891 8.64062C17.0078 8.03906 16.7344 7.4375 16.1328 7.21875C15.75 7.10938 15.4219 7 15.1484 6.94531V6.34375C15.1484 5.74219 14.6562 5.25 14.0547 5.25C13.3984 5.25 12.9609 5.74219 12.9609 6.34375V6.89062C11.7031 7.16406 10.8281 7.92969 10.6641 9.07812C10.2266 11.4297 12.4688 12.0859 13.3984 12.3594L13.7266 12.4688C15.3125 12.9062 15.3125 13.0703 15.2578 13.3438C15.2031 13.7812 14.3281 13.8906 13.6172 13.7812C13.2344 13.7266 12.7422 13.5078 12.3047 13.3984L12.0859 13.2891C11.4844 13.0703 10.8828 13.3984 10.6641 13.9453C10.4453 14.5469 10.7734 15.1484 11.3203 15.3672L11.5391 15.4219C11.9766 15.5859 12.4688 15.75 12.9609 15.8594V16.4062C12.9609 17.0078 13.3984 17.5 14 17.5C14.6562 17.5 15.0938 17.0625 15.0938 16.4062V15.8594C16.3516 15.5859 17.2266 14.875 17.3906 13.7266Z" fill="#1F4842"/>
</svg>
