<svg width="32" height="32" viewBox="0 0 32 32" fill="none" xmlns="http://www.w3.org/2000/svg">
<rect width="32" height="32" rx="7" fill="#BCF39B"/>
<path d="M24.3867 14.3824C24.5039 14.2613 24.5938 14.1246 24.6563 13.98C24.7188 13.8355 24.75 13.6753 24.75 13.5035V9.74955C24.75 9.05814 24.1914 8.49955 23.5 8.49955C22.8085 8.49955 22.2499 9.05814 22.2499 9.74955V10.48L18.1326 6.36673C17.6717 5.90579 16.9294 5.87454 16.4333 6.30032L12.8746 9.35502L9.312 6.30032C8.78854 5.8511 7.99945 5.9136 7.55022 6.43704C7.10098 6.96048 7.16348 7.74955 7.68694 8.19877L12.0621 11.9488C12.5309 12.3511 13.2223 12.3511 13.6911 11.9488L17.1873 8.95268L20.4803 12.2496H19.7499C19.0584 12.2496 18.4998 12.8082 18.4998 13.4996C18.4998 14.191 19.0584 14.7496 19.7499 14.7496H23.5C23.8437 14.7496 24.1562 14.6089 24.3828 14.3863L24.3867 14.3824ZM6 17.875C6 16.8398 6.83984 16 7.875 16H24.125C25.1602 16 26 16.8398 26 17.875V24.125C26 25.1602 25.1602 26 24.125 26H7.875C6.83984 26 6 25.1602 6 24.125V17.875ZM7.875 22.25V24.125H9.75C9.75 23.0898 8.91016 22.25 7.875 22.25ZM9.75 17.875H7.875V19.75C8.91016 19.75 9.75 18.9101 9.75 17.875ZM24.125 22.25C23.0898 22.25 22.25 23.0898 22.25 24.125H24.125V22.25ZM22.25 17.875C22.25 18.9101 23.0898 19.75 24.125 19.75V17.875H22.25ZM18.5 21C18.5 20.3369 18.2366 19.7011 17.7678 19.2322C17.2989 18.7634 16.663 18.5 16 18.5C15.337 18.5 14.7011 18.7634 14.2322 19.2322C13.7634 19.7011 13.5 20.3369 13.5 21C13.5 21.663 13.7634 22.2989 14.2322 22.7678C14.7011 23.2366 15.337 23.5 16 23.5C16.663 23.5 17.2989 23.2366 17.7678 22.7678C18.2366 22.2989 18.5 21.663 18.5 21Z" fill="#1F4842"/>
</svg>
