<svg width="32" height="32" viewBox="0 0 32 32" fill="none" xmlns="http://www.w3.org/2000/svg">
<rect width="32" height="32" rx="7" fill="#BCF39B"/>
<path d="M24.3867 6.36719C24.5039 6.48828 24.5938 6.625 24.6562 6.76953C24.7188 6.91406 24.75 7.07422 24.75 7.24609V11C24.75 11.6914 24.1914 12.25 23.5 12.25C22.8086 12.25 22.25 11.6914 22.25 11V10.2695L18.1328 14.3828C17.6719 14.8438 16.9297 14.875 16.4336 14.4492L12.875 11.3945L9.3125 14.4492C8.78906 14.8984 8 14.8359 7.55078 14.3125C7.10156 13.7891 7.16406 13 7.6875 12.5508L12.0625 8.80078C12.5312 8.39844 13.2227 8.39844 13.6914 8.80078L17.1875 11.7969L20.4805 8.5H19.75C19.0586 8.5 18.5 7.94141 18.5 7.25C18.5 6.55859 19.0586 6 19.75 6H23.5C23.8438 6 24.1562 6.14063 24.3828 6.36328L24.3867 6.36719ZM6 17.875C6 16.8398 6.83984 16 7.875 16H24.125C25.1602 16 26 16.8398 26 17.875V24.125C26 25.1602 25.1602 26 24.125 26H7.875C6.83984 26 6 25.1602 6 24.125V17.875ZM7.875 22.25V24.125H9.75C9.75 23.0898 8.91016 22.25 7.875 22.25ZM9.75 17.875H7.875V19.75C8.91016 19.75 9.75 18.9102 9.75 17.875ZM24.125 22.25C23.0898 22.25 22.25 23.0898 22.25 24.125H24.125V22.25ZM22.25 17.875C22.25 18.9102 23.0898 19.75 24.125 19.75V17.875H22.25ZM18.5 21C18.5 20.337 18.2366 19.7011 17.7678 19.2322C17.2989 18.7634 16.663 18.5 16 18.5C15.337 18.5 14.7011 18.7634 14.2322 19.2322C13.7634 19.7011 13.5 20.337 13.5 21C13.5 21.663 13.7634 22.2989 14.2322 22.7678C14.7011 23.2366 15.337 23.5 16 23.5C16.663 23.5 17.2989 23.2366 17.7678 22.7678C18.2366 22.2989 18.5 21.663 18.5 21Z" fill="#1F4842"/>
</svg>
