<svg width="27" height="28" viewBox="0 0 27 28" fill="none" xmlns="http://www.w3.org/2000/svg">
<path d="M26.4141 9.13281C26.6328 9.625 26.4688 10.1172 26.0859 10.5L23.7344 12.6328C23.7891 13.0703 23.7891 13.5625 23.7891 14C23.7891 14.4922 23.7891 14.9844 23.7344 15.4219L26.0859 17.5547C26.4688 17.8828 26.6328 18.4297 26.4141 18.9219C26.1953 19.5781 25.9219 20.1797 25.5938 20.7812L25.3203 21.2188C24.9375 21.8203 24.5547 22.4219 24.1172 22.9141C23.7891 23.3516 23.2422 23.4609 22.75 23.2969L19.7422 22.3672C18.9766 22.9141 18.1562 23.3516 17.3359 23.7344L16.625 26.8516C16.5156 27.3438 16.1328 27.7266 15.6406 27.8359C14.875 27.9453 14.1094 28 13.2891 28C12.5234 28 11.7578 27.9453 10.9922 27.8359C10.5 27.7266 10.1172 27.3438 10.0078 26.8516L9.29688 23.7344C8.42188 23.3516 7.65625 22.9141 6.89062 22.3672L3.88281 23.2969C3.39062 23.4609 2.84375 23.3516 2.51562 22.9688C2.07812 22.4219 1.69531 21.8203 1.3125 21.2188L1.03906 20.7812C0.710938 20.1797 0.4375 19.5781 0.21875 18.9219C0 18.4297 0.164062 17.9375 0.546875 17.5547L2.89844 15.4219C2.84375 14.9844 2.84375 14.4922 2.84375 14C2.84375 13.5625 2.84375 13.0703 2.89844 12.6328L0.546875 10.5C0.164062 10.1172 0 9.625 0.21875 9.13281C0.4375 8.47656 0.710938 7.875 1.03906 7.27344L1.3125 6.83594C1.69531 6.23438 2.07812 5.63281 2.51562 5.08594C2.84375 4.70312 3.39062 4.59375 3.88281 4.75781L6.89062 5.6875C7.65625 5.14062 8.47656 4.64844 9.29688 4.32031L10.0078 1.20312C10.1172 0.710938 10.5 0.328125 10.9922 0.21875C11.7578 0.109375 12.5234 0 13.3438 0C14.1094 0 14.875 0.109375 15.6406 0.21875C16.1328 0.273438 16.5156 0.710938 16.625 1.20312L17.3359 4.32031C18.2109 4.64844 18.9766 5.14062 19.7422 5.6875L22.75 4.75781C23.2422 4.59375 23.7891 4.70312 24.1172 5.08594C24.5547 5.63281 24.9375 6.23438 25.3203 6.83594L25.5938 7.27344C25.9219 7.875 26.1953 8.47656 26.4688 9.13281H26.4141ZM13.3438 18.375C14.875 18.375 16.2969 17.5547 17.1172 16.1875C17.8828 14.875 17.8828 13.1797 17.1172 11.8125C16.2969 10.5 14.875 9.625 13.3438 9.625C11.7578 9.625 10.3359 10.5 9.51562 11.8125C8.75 13.1797 8.75 14.875 9.51562 16.1875C10.3359 17.5547 11.7578 18.375 13.3438 18.375Z" fill="white"/>
</svg>
