<svg width="48" height="48" viewBox="0 0 48 48" fill="none" xmlns="http://www.w3.org/2000/svg">
<rect width="48" height="48" rx="7" fill="#BCF39B"/>
<path d="M24.0031 8C22.8966 8 22.0027 8.89375 22.0027 10V10.2C17.4392 11.125 14.0009 15.1625 14.0009 20V21.3563C14.0009 24.3625 12.9757 27.2812 11.1002 29.6313L10.4876 30.3937C10.1688 30.7875 10 31.275 10 31.7812C10 33.0063 10.994 34 12.2192 34H35.7808C37.006 34 38 33.0063 38 31.7812C38 31.275 37.8312 30.7875 37.5124 30.3937L36.8998 29.6313C35.0306 27.2812 34.0054 24.3625 34.0054 21.3563V20C34.0054 15.1625 30.5671 11.125 26.0036 10.2V10C26.0036 8.89375 25.1096 8 24.0031 8ZM20.1273 37C20.5711 38.725 22.1402 40 24.0031 40C25.866 40 27.4351 38.725 27.879 37H20.1273Z" fill="#1F4842"/>
</svg>
