<svg width="332" height="332" viewBox="0 0 332 332" fill="none" xmlns="http://www.w3.org/2000/svg">
<g clip-path="url(#clip0_107_236)">
<path d="M0 125.996C0 56.4104 56.4104 0 125.996 0H332V206.004C332 275.59 275.59 332 206.004 332H0V125.996Z" fill="url(#paint0_linear_107_236)"/>
<path d="M224.903 383.658C177.34 229.628 127.466 140.171 106.152 114.972L106.467 114.342L101.112 108.357L90.0875 170.725L79.6928 197.814L67.7231 221.753L48.5087 253.567L29.6093 276.562L4.72504 303.966L-19.2142 312.786L-35.5938 341.135C70.0331 419.462 272.24 536.955 224.903 383.658Z" fill="url(#paint1_linear_107_236)"/>
<path d="M-6.61523 312.471C26.5638 288.531 99.7886 211.107 100.797 103.002C123.476 130.196 154.66 190.254 165.685 213.879C175.449 171.04 180.489 130.721 229.313 69.9279C243.907 111.087 285.822 204.744 336.724 250.102" stroke="white" stroke-width="13.8596"/>
<path d="M141.116 387.438C156.236 186.6 205.584 98.802 228.369 80.0076C296.155 233.975 335.78 257.137 347.12 249.472L365.704 333.89L141.116 387.438Z" fill="url(#paint2_linear_107_236)"/>
<path d="M145.841 337.04C145.841 369.484 210.729 337.04 210.729 337.04C205.04 308.47 165.37 223.013 165.37 223.013C165.37 223.013 145.841 304.596 145.841 337.04Z" fill="url(#paint3_linear_107_236)"/>
</g>
<defs>
<linearGradient id="paint0_linear_107_236" x1="332" y1="-4.72488" x2="-16.0645" y2="343.34" gradientUnits="userSpaceOnUse">
<stop stop-color="#008561"/>
<stop offset="1" stop-color="#00352A"/>
</linearGradient>
<linearGradient id="paint1_linear_107_236" x1="131.272" y1="-15.1195" x2="35.3075" y2="343.025" gradientUnits="userSpaceOnUse">
<stop stop-color="#BCF39B"/>
<stop offset="1" stop-color="#297637"/>
</linearGradient>
<linearGradient id="paint2_linear_107_236" x1="245.378" y1="133.556" x2="187.105" y2="331.055" gradientUnits="userSpaceOnUse">
<stop stop-color="#00805E"/>
<stop offset="1" stop-color="#003E30"/>
</linearGradient>
<linearGradient id="paint3_linear_107_236" x1="178.285" y1="223.013" x2="169.15" y2="591.237" gradientUnits="userSpaceOnUse">
<stop stop-color="#003929"/>
<stop offset="1" stop-color="#024C37"/>
</linearGradient>
<clipPath id="clip0_107_236">
<path d="M0 125.996C0 56.4104 56.4104 0 125.996 0H332V206.004C332 275.59 275.59 332 206.004 332H0V125.996Z" fill="white"/>
</clipPath>
</defs>
</svg>
