<svg width="32" height="32" viewBox="0 0 32 32" fill="none" xmlns="http://www.w3.org/2000/svg">
<rect width="32" height="32" rx="7" fill="#BCF39B"/>
<path d="M18.5 9.75H13.5L11.6484 6.97266C11.3711 6.55469 11.668 6 12.168 6H19.832C20.332 6 20.6289 6.55469 20.3516 6.97266L18.5 9.75ZM13.5 11H18.5C18.6484 11.0977 18.8164 11.207 19.0078 11.3281C21.2227 12.7461 26 15.8008 26 22.25C26 24.3203 24.3203 26 22.25 26H9.75C7.67969 26 6 24.3203 6 22.25C6 15.8008 10.7773 12.7461 12.9922 11.3281C13.1797 11.207 13.3516 11.0977 13.5 11ZM16.7812 14.4375C16.7812 14.0078 16.4297 13.6562 16 13.6562C15.5703 13.6562 15.2188 14.0078 15.2188 14.4375V14.9844C14.9219 15.0508 14.625 15.1562 14.3516 15.3164C13.8086 15.6406 13.3398 16.207 13.3438 17.0312C13.3477 17.8242 13.8125 18.3242 14.3086 18.6211C14.7383 18.8789 15.2734 19.043 15.6992 19.168L15.7656 19.1875C16.2578 19.3359 16.6172 19.4531 16.8594 19.6055C17.0586 19.7305 17.0859 19.8164 17.0898 19.9258C17.0938 20.1211 17.0195 20.2383 16.8594 20.3359C16.6641 20.457 16.3555 20.5313 16.0234 20.5195C15.5898 20.5039 15.1836 20.3672 14.6523 20.1875C14.5625 20.1562 14.4688 20.125 14.3711 20.0938C13.9609 19.957 13.5195 20.1797 13.3828 20.5859C13.2461 20.9922 13.4688 21.4375 13.875 21.5742C13.9492 21.5977 14.0312 21.625 14.1133 21.6562C14.4375 21.7695 14.8125 21.8984 15.2148 21.9844V22.5547C15.2148 22.9844 15.5664 23.3359 15.9961 23.3359C16.4258 23.3359 16.7773 22.9844 16.7773 22.5547V22.0156C17.0898 21.9492 17.4023 21.8398 17.6836 21.6641C18.2422 21.3164 18.6641 20.7227 18.6523 19.9062C18.6406 19.1133 18.1953 18.6016 17.6914 18.2812C17.2422 18 16.6797 17.8281 16.2422 17.6953L16.2148 17.6875C15.7148 17.5352 15.3594 17.4258 15.1094 17.2773C14.9062 17.1563 14.9023 17.0859 14.9023 17.0156C14.9023 16.8711 14.957 16.7617 15.1445 16.6523C15.3555 16.5273 15.6758 16.4531 15.9844 16.457C16.3594 16.4609 16.7734 16.543 17.2031 16.6602C17.6211 16.7695 18.0469 16.5234 18.1602 16.1055C18.2734 15.6875 18.0234 15.2617 17.6055 15.1484C17.3516 15.082 17.0703 15.0156 16.7812 14.9648V14.4219V14.4375Z" fill="#1F4842"/>
</svg>
