<svg width="458" height="464" viewBox="0 0 458 464" fill="none" xmlns="http://www.w3.org/2000/svg">
<ellipse cx="201" cy="450" rx="162" ry="14" fill="black" fill-opacity="0.57"/>
<path d="M344.036 108.363H341.529V39.7264C341.529 29.1915 337.344 19.0881 329.894 11.6388C322.445 4.18944 312.342 0.00445557 301.807 0.00445557H156.385C151.169 0.00445557 146.003 1.0319 141.184 3.02811C136.365 5.02433 131.986 7.95023 128.297 11.6388C124.609 15.3273 121.683 19.7062 119.687 24.5255C117.691 29.3448 116.663 34.5101 116.663 39.7264V416.276C116.663 421.492 117.691 426.658 119.687 431.477C121.683 436.296 124.609 440.675 128.297 444.364C131.986 448.052 136.365 450.978 141.184 452.974C146.003 454.971 151.169 455.998 156.385 455.998H301.804C312.339 455.998 322.442 451.813 329.891 444.364C337.341 436.914 341.526 426.811 341.526 416.276V157.22H344.036V108.363Z" fill="#090814"/>
<path d="M303.411 10.3359H284.429C285.302 12.476 285.635 14.7979 285.399 17.097C285.163 19.3961 284.365 21.6019 283.076 23.5202C281.787 25.4384 280.046 27.0102 278.006 28.097C275.967 29.1839 273.691 29.7525 271.38 29.7528H188.065C185.754 29.7526 183.478 29.1841 181.438 28.0973C179.399 27.0105 177.657 25.4387 176.368 23.5204C175.079 21.6022 174.281 19.3963 174.045 17.0971C173.809 14.798 174.142 12.476 175.015 10.3359H157.289C149.421 10.3359 141.875 13.4614 136.312 19.0249C130.749 24.5883 127.623 32.1339 127.623 40.0018V416.004C127.623 423.872 130.749 431.417 136.312 436.981C141.875 442.544 149.421 445.67 157.289 445.67H303.405C311.273 445.67 318.818 442.544 324.381 436.981C329.945 431.417 333.07 423.872 333.07 416.004V40.0024C333.07 32.1354 329.945 24.5906 324.383 19.0273C318.821 13.464 311.276 10.3379 303.409 10.3366L303.411 10.3359Z" fill="white"/>
<path d="M149.751 53.301H307.116C308.462 53.301 309.754 53.8358 310.706 54.7878C311.658 55.7398 312.192 57.031 312.192 58.3773V98.9876C312.192 100.334 311.658 101.625 310.706 102.577C309.754 103.529 308.462 104.064 307.116 104.064H149.751C148.405 104.064 147.114 103.529 146.162 102.577C145.21 101.625 144.675 100.334 144.675 98.9876V58.3773C144.675 57.031 145.21 55.7398 146.162 54.7878C147.114 53.8358 148.405 53.301 149.751 53.301Z" fill="#F2F2F2"/>
<path d="M149.751 112.565H307.116C308.473 112.576 309.77 113.126 310.722 114.093C311.674 115.06 312.203 116.366 312.193 117.723V414.271C312.203 415.628 311.674 416.934 310.722 417.901C309.77 418.868 308.473 419.418 307.116 419.428H149.751C148.394 419.418 147.097 418.868 146.145 417.901C145.193 416.934 144.664 415.628 144.675 414.271V117.723C144.664 116.366 145.193 115.06 146.145 114.093C147.097 113.126 148.394 112.576 149.751 112.565Z" fill="#F2F2F2"/>
<path d="M181.102 73.2242H24.8127C19.2056 73.2242 14.6602 77.7697 14.6602 83.3768V107.053C14.6602 112.66 19.2056 117.206 24.8127 117.206H181.102C186.709 117.206 191.254 112.66 191.254 107.053V83.3768C191.254 77.7697 186.709 73.2242 181.102 73.2242Z" fill="#090814"/>
<path d="M179.738 75.2236H26.1782C20.9215 75.2236 16.6602 79.485 16.6602 84.7417V105.689C16.6602 110.946 20.9215 115.207 26.1782 115.207H179.738C184.995 115.207 189.256 110.946 189.256 105.689V84.7417C189.256 79.485 184.995 75.2236 179.738 75.2236Z" fill="white"/>
<path d="M172.126 101.753C171.905 101.753 171.688 101.701 171.49 101.602C171.293 101.503 171.122 101.359 170.99 101.182L167.507 96.5384C167.281 96.237 167.184 95.8583 167.237 95.4854C167.29 95.1125 167.489 94.776 167.791 94.55C168.092 94.324 168.471 94.227 168.844 94.2802C169.217 94.3335 169.553 94.5327 169.779 94.834L172.058 97.8721L177.91 89.094C178.119 88.7805 178.444 88.5629 178.813 88.489C179.183 88.4151 179.566 88.491 179.88 88.6999C180.193 88.9089 180.411 89.2337 180.485 89.6031C180.558 89.9725 180.483 90.3561 180.274 90.6695L173.308 101.12C173.183 101.31 173.013 101.466 172.815 101.577C172.616 101.687 172.393 101.748 172.166 101.755L172.126 101.753Z" fill="#1F4842"/>
<path d="M30.7872 81.8196H46.7344C48.1441 81.8196 49.4961 82.3797 50.493 83.3765C51.4898 84.3734 52.0499 85.7254 52.0499 87.1352V103.082C52.0499 104.492 51.4898 105.844 50.493 106.841C49.4961 107.838 48.1441 108.398 46.7344 108.398H30.7872C29.3774 108.398 28.0254 107.838 27.0286 106.841C26.0317 105.844 25.4717 104.492 25.4717 103.082V87.1352C25.4717 85.7254 26.0317 84.3734 27.0286 83.3765C28.0254 82.3797 29.3774 81.8196 30.7872 81.8196Z" fill="#1F4842"/>
<path d="M38.2809 103.969V102.248C37.0746 102.228 35.9122 101.792 34.9902 101.014C34.5753 100.624 34.2461 100.151 34.0236 99.6268C33.8011 99.1025 33.6901 98.5376 33.6976 97.968H36.034C36.0406 98.2527 36.1061 98.5329 36.2262 98.791C36.3463 99.0492 36.5185 99.2797 36.732 99.4681C37.1736 99.8318 37.7134 100.056 38.2828 100.112V95.9971L37.5715 95.8004C36.6098 95.5785 35.7211 95.1139 34.9902 94.4508C34.6798 94.1405 34.4371 93.7693 34.2776 93.3605C34.118 92.9517 34.045 92.5142 34.0631 92.0757C34.0494 91.3654 34.239 90.666 34.6095 90.0598C34.9794 89.4703 35.4952 88.9862 36.107 88.6543C36.7784 88.2891 37.5194 88.0696 38.2815 88.0102V86.2507H39.345V88.0026C40.1275 88.0376 40.8923 88.2475 41.583 88.6169C42.1927 88.9462 42.7073 89.427 43.0773 90.0128C43.4424 90.6007 43.6399 91.2772 43.6484 91.9691H41.3501C41.3163 91.4858 41.0966 91.0344 40.7372 90.7096C40.3442 90.3759 39.8582 90.1711 39.345 90.1226V94.0066L39.9389 94.164C40.5871 94.3309 41.2134 94.5733 41.8051 94.8861C42.384 95.1864 42.8829 95.6204 43.2607 96.152C43.6543 96.7437 43.8511 97.4445 43.8229 98.1546C43.8388 98.6843 43.7423 99.2114 43.5397 99.7012C43.3372 100.191 43.0332 100.632 42.6478 100.996C41.7326 101.793 40.562 102.236 39.3482 102.245V103.968L38.2809 103.969ZM39.3444 100.105C39.9099 100.053 40.4448 99.8251 40.8736 99.4528C41.06 99.2892 41.2086 99.0869 41.3089 98.8601C41.4093 98.6333 41.4591 98.3873 41.4548 98.1393C41.4661 97.9114 41.419 97.6845 41.3181 97.4798C41.2172 97.2752 41.0657 97.0997 40.878 96.9699C40.4083 96.6613 39.8904 96.4331 39.3456 96.2947L39.3444 100.105ZM38.2809 93.7255V90.1391C37.7785 90.1927 37.3072 90.4083 36.9382 90.7533C36.782 90.9057 36.6586 91.0883 36.5755 91.2901C36.4925 91.4918 36.4516 91.7084 36.4553 91.9266C36.4435 92.153 36.4888 92.3788 36.5871 92.5831C36.6853 92.7875 36.8333 92.9638 37.0175 93.096C37.4035 93.3716 37.8308 93.5841 38.2834 93.7255H38.2809Z" fill="white"/>
<path d="M65.3389 84.0342H145.075C145.656 84.0342 146.232 84.1488 146.77 84.3714C147.307 84.594 147.796 84.9203 148.207 85.3316C148.618 85.7429 148.945 86.2313 149.167 86.7687C149.39 87.3061 149.504 87.8822 149.504 88.4639C149.504 89.0456 149.39 89.6216 149.167 90.159C148.945 90.6965 148.618 91.1848 148.207 91.5961C147.796 92.0075 147.307 92.3338 146.77 92.5564C146.232 92.779 145.656 92.8936 145.075 92.8936H65.3389C64.164 92.8936 63.0373 92.4269 62.2066 91.5961C61.3759 90.7654 60.9092 89.6387 60.9092 88.4639C60.9092 87.289 61.3759 86.1623 62.2066 85.3316C63.0373 84.5009 64.164 84.0342 65.3389 84.0342Z" fill="#E6E6E6"/>
<path d="M65.3389 97.3239H109.636C110.218 97.3239 110.794 97.4385 111.332 97.6611C111.869 97.8837 112.357 98.21 112.769 98.6213C113.18 99.0326 113.506 99.521 113.729 100.058C113.952 100.596 114.066 101.172 114.066 101.754C114.066 102.335 113.952 102.911 113.729 103.449C113.506 103.986 113.18 104.475 112.769 104.886C112.357 105.297 111.869 105.623 111.332 105.846C110.794 106.069 110.218 106.183 109.636 106.183H65.3389C64.164 106.183 63.0373 105.717 62.2066 104.886C61.3759 104.055 60.9092 102.928 60.9092 101.754C60.9092 100.579 61.3759 99.452 62.2066 98.6213C63.0373 97.7906 64.164 97.3239 65.3389 97.3239Z" fill="#E6E6E6"/>
<path d="M423.002 140.53H266.047C260.44 140.53 255.895 145.076 255.895 150.683V174.359C255.895 179.966 260.44 184.512 266.047 184.512H423.002C428.609 184.512 433.155 179.966 433.155 174.359V150.683C433.155 145.076 428.609 140.53 423.002 140.53Z" fill="#090814"/>
<path d="M420.972 142.53H267.413C262.156 142.53 257.895 146.791 257.895 152.048V172.995C257.895 178.252 262.156 182.513 267.413 182.513H420.972C426.229 182.513 430.49 178.252 430.49 172.995V152.048C430.49 146.791 426.229 142.53 420.972 142.53Z" fill="white"/>
<path d="M413.549 169.306C413.328 169.305 413.111 169.254 412.913 169.155C412.716 169.055 412.545 168.912 412.413 168.735L408.93 164.091C408.704 163.79 408.607 163.411 408.66 163.038C408.713 162.665 408.912 162.329 409.214 162.103C409.515 161.877 409.894 161.78 410.267 161.833C410.639 161.886 410.976 162.085 411.202 162.387L413.48 165.425L419.333 156.647C419.542 156.333 419.867 156.116 420.236 156.042C420.605 155.968 420.989 156.044 421.302 156.253C421.616 156.462 421.833 156.786 421.907 157.156C421.981 157.525 421.905 157.909 421.696 158.222L414.731 168.673C414.605 168.863 414.436 169.019 414.237 169.129C414.039 169.24 413.816 169.301 413.589 169.308L413.549 169.306Z" fill="#1F4842"/>
<path d="M272.21 149.373H288.157C289.567 149.373 290.919 149.933 291.916 150.93C292.913 151.927 293.473 153.279 293.473 154.689V170.636C293.473 172.045 292.913 173.398 291.916 174.394C290.919 175.391 289.567 175.951 288.157 175.951H272.21C270.8 175.951 269.448 175.391 268.451 174.394C267.455 173.398 266.895 172.045 266.895 170.636V154.689C266.895 153.279 267.455 151.927 268.451 150.93C269.448 149.933 270.8 149.373 272.21 149.373Z" fill="#1F4842"/>
<path d="M279.703 171.523V169.801C278.496 169.781 277.334 169.345 276.412 168.567C275.997 168.177 275.668 167.705 275.445 167.18C275.223 166.656 275.112 166.091 275.12 165.521H277.456C277.462 165.806 277.528 166.086 277.648 166.344C277.768 166.602 277.94 166.833 278.154 167.021C278.595 167.385 279.135 167.609 279.705 167.665V163.55L278.993 163.354C278.032 163.132 277.143 162.667 276.412 162.004C276.102 161.694 275.859 161.323 275.699 160.914C275.54 160.505 275.467 160.068 275.485 159.629C275.471 158.919 275.661 158.219 276.031 157.613C276.401 157.024 276.917 156.54 277.529 156.208C278.2 155.842 278.941 155.623 279.703 155.564V153.804H280.767V155.556C281.549 155.591 282.314 155.801 283.005 156.17C283.615 156.5 284.129 156.98 284.499 157.566C284.864 158.154 285.062 158.831 285.07 159.522H282.772C282.738 159.039 282.519 158.588 282.159 158.263C281.766 157.929 281.28 157.724 280.767 157.676V161.56L281.361 161.717C282.009 161.884 282.635 162.127 283.227 162.439C283.806 162.74 284.305 163.174 284.683 163.705C285.076 164.297 285.273 164.998 285.245 165.708C285.261 166.238 285.164 166.765 284.962 167.255C284.759 167.744 284.455 168.186 284.07 168.549C283.154 169.347 281.984 169.79 280.77 169.798V171.522L279.703 171.523ZM280.766 167.658C281.332 167.606 281.867 167.378 282.295 167.006C282.482 166.843 282.63 166.64 282.731 166.413C282.831 166.187 282.881 165.941 282.877 165.693C282.888 165.465 282.841 165.238 282.74 165.033C282.639 164.829 282.488 164.653 282.3 164.523C281.83 164.215 281.312 163.986 280.768 163.848L280.766 167.658ZM279.703 161.279V157.692C279.2 157.746 278.729 157.962 278.36 158.307C278.204 158.459 278.08 158.642 277.997 158.843C277.914 159.045 277.873 159.262 277.877 159.48C277.865 159.706 277.911 159.932 278.009 160.136C278.107 160.341 278.255 160.517 278.439 160.649C278.825 160.925 279.253 161.137 279.705 161.279H279.703Z" fill="white"/>
<path d="M306.761 151.588H386.497C387.078 151.588 387.654 151.702 388.192 151.925C388.729 152.147 389.218 152.474 389.629 152.885C390.04 153.296 390.366 153.785 390.589 154.322C390.812 154.859 390.926 155.436 390.926 156.017C390.926 156.599 390.812 157.175 390.589 157.712C390.366 158.25 390.04 158.738 389.629 159.149C389.218 159.561 388.729 159.887 388.192 160.11C387.654 160.332 387.078 160.447 386.497 160.447H306.761C305.586 160.447 304.459 159.98 303.628 159.149C302.798 158.319 302.331 157.192 302.331 156.017C302.331 154.842 302.798 153.716 303.628 152.885C304.459 152.054 305.586 151.588 306.761 151.588Z" fill="#E6E6E6"/>
<path d="M306.761 164.877H351.058C351.64 164.877 352.216 164.991 352.754 165.214C353.291 165.436 353.779 165.763 354.191 166.174C354.602 166.585 354.928 167.074 355.151 167.611C355.373 168.149 355.488 168.725 355.488 169.306C355.488 169.888 355.373 170.464 355.151 171.001C354.928 171.539 354.602 172.027 354.191 172.439C353.779 172.85 353.291 173.176 352.754 173.399C352.216 173.621 351.64 173.736 351.058 173.736H306.761C305.586 173.736 304.459 173.269 303.628 172.439C302.798 171.608 302.331 170.481 302.331 169.306C302.331 168.131 302.798 167.005 303.628 166.174C304.459 165.343 305.586 164.877 306.761 164.877Z" fill="#E6E6E6"/>
<path d="M207.091 209.168H50.136C44.5289 209.168 39.9834 213.713 39.9834 219.321V242.997C39.9834 248.604 44.5289 253.15 50.136 253.15H207.091C212.698 253.15 217.244 248.604 217.244 242.997V219.321C217.244 213.713 212.698 209.168 207.091 209.168Z" fill="#090814"/>
<path d="M205.06 211.167H51.5005C46.2438 211.167 41.9824 215.429 41.9824 220.685V241.633C41.9824 246.889 46.2438 251.151 51.5005 251.151H205.06C210.317 251.151 214.578 246.889 214.578 241.633V220.685C214.578 215.429 210.317 211.167 205.06 211.167Z" fill="white"/>
<path d="M197.597 237.967C197.376 237.967 197.158 237.915 196.961 237.816C196.764 237.717 196.592 237.573 196.46 237.396L192.977 232.752C192.751 232.451 192.654 232.072 192.708 231.699C192.761 231.327 192.96 230.99 193.261 230.764C193.563 230.538 193.941 230.441 194.314 230.494C194.687 230.547 195.024 230.747 195.25 231.048L197.528 234.086L203.381 225.308C203.59 224.995 203.914 224.777 204.284 224.703C204.653 224.629 205.037 224.705 205.35 224.914C205.664 225.123 205.881 225.448 205.955 225.817C206.029 226.187 205.953 226.57 205.744 226.884L198.779 237.334C198.653 237.524 198.484 237.68 198.285 237.791C198.086 237.901 197.864 237.962 197.637 237.969L197.597 237.967Z" fill="#1F4842"/>
<path d="M56.2589 218.034H72.206C73.6158 218.034 74.9678 218.594 75.9647 219.591C76.9615 220.587 77.5215 221.939 77.5215 223.349V239.296C77.5215 240.706 76.9615 242.058 75.9647 243.055C74.9678 244.052 73.6158 244.612 72.206 244.612H56.2589C54.8491 244.612 53.4971 244.052 52.5002 243.055C51.5034 242.058 50.9434 240.706 50.9434 239.296V223.349C50.9434 221.939 51.5034 220.587 52.5002 219.591C53.4971 218.594 54.8491 218.034 56.2589 218.034Z" fill="#1F4842"/>
<path d="M63.7516 240.183V238.462C62.5453 238.442 61.3829 238.006 60.4609 237.228C60.046 236.837 59.7168 236.365 59.4943 235.841C59.2718 235.316 59.1608 234.752 59.1683 234.182H61.5047C61.5113 234.467 61.5768 234.747 61.6969 235.005C61.817 235.263 61.9892 235.494 62.2027 235.682C62.6443 236.046 63.1841 236.27 63.7535 236.326V232.211L63.0422 232.014C62.0805 231.792 61.1918 231.328 60.4609 230.665C60.1505 230.354 59.9079 229.983 59.7483 229.574C59.5887 229.166 59.5157 228.728 59.5338 228.29C59.5201 227.579 59.7097 226.88 60.0802 226.274C60.4501 225.684 60.9659 225.2 61.5777 224.868C62.2492 224.503 62.9901 224.284 63.7522 224.224V222.465H64.8157V224.217C65.5982 224.252 66.363 224.461 67.0537 224.831C67.6634 225.16 68.178 225.641 68.548 226.227C68.9131 226.815 69.1106 227.491 69.1191 228.183H66.8208C66.787 227.7 66.5673 227.248 66.2079 226.924C65.8149 226.59 65.3289 226.385 64.8157 226.337V230.221L65.4096 230.378C66.0578 230.545 66.6841 230.787 67.2758 231.1C67.8547 231.4 68.3537 231.834 68.7314 232.366C69.125 232.958 69.3218 233.658 69.2936 234.369C69.3095 234.898 69.213 235.425 69.0104 235.915C68.8079 236.405 68.5039 236.846 68.1185 237.21C67.2033 238.007 66.0327 238.45 64.8189 238.459V240.182L63.7516 240.183ZM64.8151 236.318C65.3806 236.267 65.9155 236.039 66.3443 235.667C66.5307 235.503 66.6793 235.301 66.7796 235.074C66.88 234.847 66.9298 234.601 66.9255 234.353C66.9368 234.125 66.8897 233.898 66.7888 233.694C66.6879 233.489 66.5364 233.314 66.3487 233.184C65.879 232.875 65.3611 232.647 64.8163 232.509L64.8151 236.318ZM63.7516 229.939V226.353C63.2492 226.407 62.7779 226.622 62.4089 226.967C62.2527 227.12 62.1293 227.302 62.0462 227.504C61.9632 227.706 61.9223 227.922 61.926 228.141C61.9142 228.367 61.9595 228.593 62.0578 228.797C62.156 229.001 62.304 229.178 62.4882 229.31C62.8742 229.586 63.3015 229.798 63.7541 229.939H63.7516Z" fill="white"/>
<path d="M90.8096 220.249H170.545C171.127 220.249 171.703 220.363 172.241 220.586C172.778 220.809 173.266 221.135 173.678 221.546C174.089 221.958 174.415 222.446 174.638 222.983C174.861 223.521 174.975 224.097 174.975 224.679C174.975 225.26 174.861 225.836 174.638 226.374C174.415 226.911 174.089 227.4 173.678 227.811C173.266 228.222 172.778 228.548 172.241 228.771C171.703 228.994 171.127 229.108 170.545 229.108H90.8096C89.6348 229.108 88.508 228.642 87.6773 227.811C86.8466 226.98 86.3799 225.853 86.3799 224.679C86.3799 223.504 86.8466 222.377 87.6773 221.546C88.508 220.716 89.6348 220.249 90.8096 220.249Z" fill="#E6E6E6"/>
<path d="M90.8096 233.538H135.107C135.689 233.538 136.265 233.653 136.802 233.875C137.34 234.098 137.828 234.424 138.239 234.835C138.651 235.247 138.977 235.735 139.2 236.272C139.422 236.81 139.537 237.386 139.537 237.968C139.537 238.549 139.422 239.125 139.2 239.663C138.977 240.2 138.651 240.689 138.239 241.1C137.828 241.511 137.34 241.838 136.802 242.06C136.265 242.283 135.689 242.397 135.107 242.397H90.8096C89.6348 242.397 88.508 241.931 87.6773 241.1C86.8466 240.269 86.3799 239.142 86.3799 237.968C86.3799 236.793 86.8466 235.666 87.6773 234.835C88.508 234.005 89.6348 233.538 90.8096 233.538Z" fill="#E6E6E6"/>
<path d="M446.993 276.474H290.038C284.431 276.474 279.886 281.02 279.886 286.627V310.97C279.886 316.578 284.431 321.123 290.038 321.123H446.993C452.601 321.123 457.146 316.578 457.146 310.97V286.627C457.146 281.02 452.601 276.474 446.993 276.474Z" fill="#090814"/>
<path d="M445.628 279.14H292.069C286.812 279.14 282.551 283.402 282.551 288.658V309.605C282.551 314.862 286.812 319.124 292.069 319.124H445.628C450.885 319.124 455.147 314.862 455.147 309.605V288.658C455.147 283.402 450.885 279.14 445.628 279.14Z" fill="white"/>
<path d="M437.912 305.521C437.692 305.521 437.474 305.469 437.277 305.37C437.079 305.271 436.908 305.127 436.776 304.95L433.293 300.306C433.067 300.005 432.97 299.626 433.023 299.253C433.076 298.881 433.276 298.544 433.577 298.318C433.878 298.092 434.257 297.995 434.63 298.048C435.003 298.101 435.339 298.301 435.565 298.602L437.844 301.64L443.696 292.862C443.905 292.549 444.23 292.331 444.599 292.257C444.969 292.183 445.352 292.259 445.666 292.468C445.979 292.677 446.197 293.002 446.271 293.371C446.345 293.74 446.269 294.124 446.06 294.438L439.094 304.888C438.969 305.078 438.799 305.234 438.601 305.345C438.402 305.455 438.18 305.516 437.952 305.523L437.912 305.521Z" fill="#1F4842"/>
<path d="M296.572 285.588H312.52C313.929 285.588 315.281 286.148 316.278 287.145C317.275 288.141 317.835 289.493 317.835 290.903V306.85C317.835 308.26 317.275 309.612 316.278 310.609C315.281 311.606 313.929 312.166 312.52 312.166H296.572C295.163 312.166 293.811 311.606 292.814 310.609C291.817 309.612 291.257 308.26 291.257 306.85V290.903C291.257 289.493 291.817 288.141 292.814 287.145C293.811 286.148 295.163 285.588 296.572 285.588Z" fill="#1F4842"/>
<path d="M304.066 307.737V306.016C302.86 305.996 301.697 305.56 300.775 304.782C300.36 304.391 300.031 303.919 299.809 303.395C299.586 302.87 299.475 302.306 299.483 301.736H301.819C301.826 302.021 301.891 302.301 302.011 302.559C302.131 302.817 302.304 303.048 302.517 303.236C302.959 303.6 303.499 303.824 304.068 303.88V299.765L303.357 299.568C302.395 299.347 301.506 298.882 300.775 298.219C300.465 297.909 300.222 297.537 300.063 297.128C299.903 296.72 299.83 296.282 299.848 295.844C299.835 295.133 300.024 294.434 300.395 293.828C300.765 293.238 301.28 292.754 301.892 292.422C302.564 292.057 303.305 291.838 304.067 291.778V290.019H305.13V291.771C305.913 291.806 306.677 292.015 307.368 292.385C307.978 292.714 308.492 293.195 308.862 293.781C309.228 294.369 309.425 295.045 309.434 295.737H307.135C307.101 295.254 306.882 294.802 306.522 294.478C306.129 294.144 305.643 293.939 305.13 293.891V297.775L305.724 297.932C306.372 298.099 306.999 298.341 307.59 298.654C308.169 298.954 308.668 299.388 309.046 299.92C309.439 300.512 309.636 301.212 309.608 301.923C309.624 302.452 309.527 302.979 309.325 303.469C309.122 303.959 308.818 304.4 308.433 304.764C307.518 305.561 306.347 306.004 305.133 306.013V307.736L304.066 307.737ZM305.13 303.872C305.695 303.821 306.23 303.593 306.659 303.221C306.845 303.057 306.994 302.855 307.094 302.628C307.194 302.401 307.244 302.155 307.24 301.907C307.251 301.679 307.204 301.452 307.103 301.248C307.002 301.043 306.851 300.868 306.663 300.738C306.193 300.429 305.676 300.201 305.131 300.063L305.13 303.872ZM304.066 297.493V293.907C303.564 293.961 303.092 294.176 302.723 294.521C302.567 294.674 302.444 294.856 302.361 295.058C302.278 295.26 302.237 295.476 302.24 295.695C302.229 295.921 302.274 296.147 302.372 296.351C302.47 296.555 302.618 296.732 302.803 296.864C303.189 297.14 303.616 297.352 304.069 297.493H304.066Z" fill="white"/>
<path d="M331.124 287.803H410.86C411.442 287.803 412.018 287.917 412.555 288.14C413.092 288.363 413.581 288.689 413.992 289.1C414.403 289.512 414.73 290 414.952 290.537C415.175 291.075 415.29 291.651 415.29 292.233C415.29 292.814 415.175 293.39 414.952 293.928C414.73 294.465 414.403 294.953 413.992 295.365C413.581 295.776 413.092 296.102 412.555 296.325C412.018 296.548 411.442 296.662 410.86 296.662H331.124C329.949 296.662 328.822 296.196 327.992 295.365C327.161 294.534 326.694 293.407 326.694 292.233C326.694 291.058 327.161 289.931 327.992 289.1C328.822 288.27 329.949 287.803 331.124 287.803Z" fill="#E6E6E6"/>
<path d="M331.124 301.092H375.422C376.003 301.092 376.579 301.206 377.117 301.429C377.654 301.652 378.143 301.978 378.554 302.389C378.965 302.801 379.292 303.289 379.514 303.826C379.737 304.364 379.851 304.94 379.851 305.522C379.851 306.103 379.737 306.679 379.514 307.217C379.292 307.754 378.965 308.243 378.554 308.654C378.143 309.065 377.654 309.392 377.117 309.614C376.579 309.837 376.003 309.951 375.422 309.951H331.124C329.949 309.951 328.822 309.485 327.992 308.654C327.161 307.823 326.694 306.696 326.694 305.522C326.694 304.347 327.161 303.22 327.992 302.389C328.822 301.559 329.949 301.092 331.124 301.092Z" fill="#E6E6E6"/>
<path d="M167.108 344.447H10.1526C4.54546 344.447 0 348.992 0 354.599V378.276C0 383.883 4.54546 388.428 10.1526 388.428H167.108C172.715 388.428 177.26 383.883 177.26 378.276V354.599C177.26 348.992 172.715 344.447 167.108 344.447Z" fill="#090814"/>
<path d="M165.744 346.446H11.518C6.26137 346.446 2 350.707 2 355.964V376.911C2 382.168 6.26137 386.429 11.518 386.429H165.744C171.001 386.429 175.262 382.168 175.262 376.911V355.964C175.262 350.707 171.001 346.446 165.744 346.446Z" fill="white"/>
<path d="M157.731 373.076C157.51 373.075 157.292 373.024 157.095 372.924C156.898 372.825 156.726 372.682 156.594 372.505L153.111 367.861C152.885 367.56 152.788 367.181 152.841 366.808C152.895 366.435 153.094 366.099 153.395 365.873C153.697 365.647 154.075 365.55 154.448 365.603C154.821 365.656 155.158 365.855 155.384 366.157L157.662 369.195L163.514 360.417C163.723 360.103 164.048 359.886 164.418 359.812C164.787 359.738 165.171 359.814 165.484 360.023C165.798 360.231 166.015 360.556 166.089 360.926C166.163 361.295 166.087 361.679 165.878 361.992L158.913 372.443C158.787 372.632 158.618 372.789 158.419 372.899C158.22 373.01 157.998 373.071 157.771 373.078L157.731 373.076Z" fill="#1F4842"/>
<path d="M16.3907 353.142H32.3379C33.7476 353.142 35.0997 353.702 36.0965 354.699C37.0934 355.696 37.6534 357.048 37.6534 358.458V374.405C37.6534 375.815 37.0934 377.167 36.0965 378.164C35.0997 379.16 33.7476 379.72 32.3379 379.72H16.3907C14.9809 379.72 13.6289 379.16 12.6321 378.164C11.6352 377.167 11.0752 375.815 11.0752 374.405V358.458C11.0752 357.048 11.6352 355.696 12.6321 354.699C13.6289 353.702 14.9809 353.142 16.3907 353.142Z" fill="#1F4842"/>
<path d="M23.8844 375.292V373.571C22.6781 373.55 21.5157 373.114 20.5937 372.336C20.1788 371.946 19.8496 371.474 19.6271 370.949C19.4046 370.425 19.2936 369.86 19.3011 369.291H21.6375C21.6441 369.575 21.7096 369.855 21.8297 370.114C21.9498 370.372 22.122 370.602 22.3355 370.791C22.7771 371.154 23.3169 371.379 23.8863 371.435V367.32L23.175 367.123C22.2134 366.901 21.3246 366.436 20.5937 365.773C20.2833 365.463 20.0407 365.092 19.8811 364.683C19.7215 364.274 19.6485 363.837 19.6666 363.398C19.6529 362.688 19.8425 361.989 20.213 361.382C20.5829 360.793 21.0987 360.309 21.7105 359.977C22.382 359.612 23.123 359.392 23.885 359.333V357.573H24.9485V359.325C25.731 359.36 26.4958 359.57 27.1865 359.939C27.7962 360.269 28.3108 360.75 28.6809 361.335C29.0459 361.923 29.2434 362.6 29.2519 363.292H26.9537C26.9198 362.808 26.7002 362.357 26.3407 362.032C25.9477 361.698 25.4617 361.494 24.9485 361.445V365.329L25.5424 365.487C26.1906 365.654 26.8169 365.896 27.4086 366.209C27.9875 366.509 28.4865 366.943 28.8642 367.475C29.2578 368.066 29.4546 368.767 29.4264 369.477C29.4423 370.007 29.3458 370.534 29.1432 371.024C28.9407 371.513 28.6367 371.955 28.2513 372.319C27.3361 373.116 26.1655 373.559 24.9517 373.567V375.291L23.8844 375.292ZM24.9479 371.427C25.5134 371.376 26.0484 371.148 26.4771 370.775C26.6635 370.612 26.8121 370.409 26.9124 370.183C27.0128 369.956 27.0626 369.71 27.0583 369.462C27.0696 369.234 27.0225 369.007 26.9216 368.802C26.8207 368.598 26.6692 368.422 26.4816 368.292C26.0118 367.984 25.4939 367.756 24.9492 367.617L24.9479 371.427ZM23.8844 365.048V361.462C23.382 361.515 22.9108 361.731 22.5417 362.076C22.3855 362.228 22.2621 362.411 22.179 362.613C22.096 362.814 22.0551 363.031 22.0588 363.249C22.047 363.476 22.0923 363.701 22.1906 363.906C22.2888 364.11 22.4368 364.286 22.621 364.419C23.007 364.694 23.4343 364.907 23.8869 365.048H23.8844Z" fill="white"/>
<path d="M50.9414 355.357H130.677C131.259 355.357 131.835 355.471 132.372 355.694C132.91 355.917 133.398 356.243 133.81 356.654C134.221 357.066 134.547 357.554 134.77 358.091C134.992 358.629 135.107 359.205 135.107 359.787C135.107 360.368 134.992 360.944 134.77 361.482C134.547 362.019 134.221 362.507 133.81 362.919C133.398 363.33 132.91 363.656 132.372 363.879C131.835 364.102 131.259 364.216 130.677 364.216H50.9414C49.7666 364.216 48.6399 363.75 47.8091 362.919C46.9784 362.088 46.5117 360.961 46.5117 359.787C46.5117 358.612 46.9784 357.485 47.8091 356.654C48.6399 355.824 49.7666 355.357 50.9414 355.357Z" fill="#E6E6E6"/>
<path d="M50.9414 368.647H95.239C95.8207 368.647 96.3968 368.761 96.9342 368.984C97.4716 369.206 97.96 369.533 98.3713 369.944C98.7826 370.355 99.1089 370.844 99.3315 371.381C99.5541 371.919 99.6687 372.495 99.6687 373.076C99.6687 373.658 99.5541 374.234 99.3315 374.771C99.1089 375.309 98.7826 375.797 98.3713 376.209C97.96 376.62 97.4716 376.946 96.9342 377.169C96.3968 377.391 95.8207 377.506 95.239 377.506H50.9414C49.7666 377.506 48.6399 377.039 47.8091 376.209C46.9784 375.378 46.5117 374.251 46.5117 373.076C46.5117 371.901 46.9784 370.775 47.8091 369.944C48.6399 369.113 49.7666 368.647 50.9414 368.647Z" fill="#E6E6E6"/>
</svg>
