<svg width="25" height="28" viewBox="0 0 25 28" fill="none" xmlns="http://www.w3.org/2000/svg">
<path d="M12.0312 0.0546875C12.1953 0 12.3594 0 12.5234 0.0546875L23.4609 2.24219C24.0625 2.35156 24.5547 2.89844 24.5547 3.5C24.5547 4.15625 24.0625 4.70312 23.4609 4.8125L19.3047 5.63281V8.75C19.3047 12.6328 16.1328 15.75 12.3047 15.75C8.42188 15.75 5.30469 12.6328 5.30469 8.75V5.63281L2.67969 5.14062V8.69531L3.5 12.9609C3.55469 13.2344 3.5 13.5078 3.33594 13.7266C3.17188 13.8906 2.89844 14 2.67969 14H0.929688C0.65625 14 0.382812 13.8906 0.21875 13.7266C0.0546875 13.5078 0 13.2344 0.0546875 12.9609L0.929688 8.69531V4.75781C0.382812 4.59375 0.0546875 4.10156 0.0546875 3.5C0.0546875 2.89844 0.492188 2.35156 1.09375 2.24219L12.0312 0.0546875ZM6.125 17.9375C6.72656 17.7734 7.32812 17.9922 7.76562 18.4297L11.6484 22.5312C11.9766 22.9141 12.5781 22.9141 12.9062 22.5312L16.7891 18.4297C17.2266 17.9922 17.8281 17.7734 18.4297 17.9375C21.9844 19.0859 24.5547 22.4219 24.5547 26.3594C24.5547 27.2891 23.7891 28 22.8594 28H1.69531C0.765625 28 0.0546875 27.2891 0.0546875 26.3594C0.0546875 22.4219 2.625 19.0859 6.125 17.9375Z" fill="white"/>
</svg>
