<svg width="25" height="28" viewBox="0 0 25 28" fill="none" xmlns="http://www.w3.org/2000/svg">
<path d="M0.984375 4.375C0 4.15625 0 2.89844 0.984375 2.67969L11.4297 0.164062C12.1406 0 12.8516 0 13.5625 0.164062L24.0078 2.67969C24.9922 2.89844 24.9922 4.15625 24.0078 4.375L19.5234 5.46875L19.4688 8.75C19.4688 12.6328 16.3516 15.75 12.5234 15.75C8.64062 15.75 5.52344 12.6328 5.52344 8.75V5.46875L2.67969 4.8125V7.65625C3.0625 7.875 3.33594 8.3125 3.33594 8.75C3.33594 9.24219 3.0625 9.625 2.67969 9.84375L3.55469 13.2891C3.66406 13.6172 3.44531 14 3.11719 14H0.875C0.546875 14 0.328125 13.6172 0.4375 13.2344L1.3125 9.84375C0.929688 9.625 0.710938 9.24219 0.710938 8.75C0.710938 8.3125 0.984375 7.875 1.36719 7.65625V4.48438L0.984375 4.375ZM18.1562 17.1172C21.9844 18.375 24.7734 21.875 24.7734 26.1406C24.7734 27.1797 23.8984 28 22.8594 28H2.13281C1.09375 28 0.273438 27.1797 0.273438 26.1406C0.273438 21.875 3.00781 18.375 6.83594 17.1172L12.5234 22.75L18.1562 17.1172Z" fill="#1F4842"/>
</svg>
